<svg width="123" height="150" viewBox="0 0 123 150" fill="none" xmlns="http://www.w3.org/2000/svg">
<mask id="path-1-inside-1_602_234" fill="white">
<path d="M29.9405 2.70184C29.9405 1.20965 28.8345 0 27.4703 0C26.106 0 25 1.20965 25 2.70184V40.5276C25 42.0197 26.106 43.2294 27.4703 43.2294C28.8345 43.2294 29.9405 42.0197 29.9405 40.5276V2.70184Z"/>
</mask>
<path d="M27.4703 6C25.0261 6 23.9405 4.00596 23.9405 2.70184H35.9405C35.9405 -1.58665 32.643 -6 27.4703 -6V6ZM23.9405 2.70184V40.5276H35.9405V2.70184H23.9405ZM23.9405 40.5276C23.9405 39.2234 25.0261 37.2294 27.4703 37.2294V49.2294C32.643 49.2294 35.9405 44.816 35.9405 40.5276H23.9405ZM27.4703 37.2294C29.9144 37.2294 31 39.2234 31 40.5276H19C19 44.816 22.2975 49.2294 27.4703 49.2294V37.2294ZM31 40.5276V2.70184H19V40.5276H31ZM31 2.70184C31 4.00596 29.9144 6 27.4703 6V-6C22.2975 -6 19 -1.58665 19 2.70184H31Z" fill="#111111" mask="url(#path-1-inside-1_602_234)"/>
<path d="M71.9348 6.35042C77.6033 6.35042 84.882 5.63171 88.6806 7.11135C99.6359 11.3786 99.4794 29.4166 86.9591 32.6875C83.2728 33.8063 77.2258 33.1666 71.9348 33.1666" stroke="#111111" stroke-width="6" stroke-linecap="round"/>
<path d="M36.1161 6.35042C42.0681 6.35042 49.7106 5.63171 53.6993 7.11135C65.2023 11.3786 65.038 29.4166 51.8917 32.6875C48.0211 33.8063 41.6717 33.1666 36.1161 33.1666" stroke="#111111" stroke-width="6" stroke-linecap="round"/>
<path d="M78.8147 80.7096C78.8101 80.1905 78.7831 79.6719 78.7339 79.1551C78.5711 77.4832 78.1719 75.8427 77.5486 74.2826C77.5027 74.1685 77.4607 74.053 77.4122 73.9404C76.548 71.9062 75.3145 70.0493 73.7739 68.4636C73.5102 68.1884 73.2373 67.9219 72.9563 67.6642C69.6648 64.6603 65.3672 62.9964 60.9093 63C56.2352 63 51.9766 64.7996 48.7842 67.7401C48.0401 68.4262 47.3553 69.1734 46.7363 69.9739C44.3113 73.0983 42.9967 76.9406 43 80.8944C43 90.7623 51.0346 98.7895 60.9099 98.7895C67.8566 98.7895 73.8876 94.8149 76.856 89.0238C77.6639 87.45 78.2311 85.7642 78.5392 84.0225C78.7199 83.0061 78.8186 81.9609 78.8186 80.8944C78.8192 80.8326 78.8156 80.7715 78.8147 80.7096ZM75.4441 73.5576L75.548 73.4413C75.6841 73.7056 75.8114 73.9742 75.9332 74.2466L75.7635 74.2399L75.4441 74.2841V73.5576ZM72.856 70.4354L72.8589 69.6361C73.1406 69.9341 73.4115 70.2411 73.6707 70.559L73.3483 71.0389L72.2203 71.0286L72.1497 70.7938L72.856 70.4354ZM51.2518 68.4488V68.4187H51.6106L51.6416 68.2957H52.2287V68.5519L52.06 68.7771H51.2511L51.2518 68.4488ZM51.8249 69.2474C51.8249 69.2474 52.1837 69.1863 52.2147 69.1863C52.2456 69.1863 52.2147 69.544 52.2147 69.544L51.4058 69.5948L51.2518 69.4108L51.8249 69.2474ZM76.5851 76.3509H75.2744L74.476 75.7569L73.6355 75.8386V76.3509H73.3695L73.0823 76.1463L71.6267 75.7775V74.8354L69.782 74.9789L69.2106 75.2858H68.4782L68.1194 75.2498L67.2304 75.7429V76.671L65.4131 77.9812L65.5642 78.5405H65.9324L65.8361 79.0734L65.5765 79.1684L65.5625 80.561L67.133 82.348H67.8169L67.8579 82.2391H69.0868L69.4411 81.9116H70.1379L70.5202 82.2943L71.559 82.4018L71.4213 83.7818L72.574 85.8155L71.967 86.9747L72.0084 87.5209L72.4864 87.9971V89.3101L73.1139 90.1536V91.2444H73.6561C70.6388 94.946 66.0467 97.3166 60.9086 97.3166C51.8464 97.3176 44.4732 89.9498 44.4732 80.8944C44.4732 78.6149 44.9417 76.4421 45.7851 74.4674V73.9551L46.3732 73.2419C46.577 72.8569 46.7959 72.4815 47.0293 72.1157L47.056 72.4138L46.3732 73.2419C46.1602 73.642 45.9649 74.0509 45.7861 74.4674V75.4021L46.4689 75.7304V77.0295L47.1238 78.146L47.6562 78.2277L47.7249 77.845L47.0964 76.8764L46.9733 75.935H47.3416L47.4973 76.9036L48.4055 78.2277L48.1713 78.6554L48.7487 79.5379L50.1831 79.8926V79.6608L50.7568 79.7425L50.7024 80.1517L51.1531 80.2342L51.8493 80.424L52.8327 81.5436L54.0887 81.6385L54.2117 82.6623L53.3521 83.2629L53.3114 84.1771L53.1886 84.7364L54.4319 86.2917L54.527 86.8246C54.527 86.8246 54.978 86.9467 55.033 86.9467C55.0877 86.9467 56.0437 87.6703 56.0437 87.6703V90.4812L56.3847 90.5769L56.1528 91.8737L56.7266 92.6385L56.6204 93.9237L57.3785 95.2551L58.3515 96.1043L59.33 96.1222L59.4257 95.8079L58.7067 95.2027L58.7481 94.9024L58.8767 94.5344L58.9041 94.159L58.4179 94.1443L58.1727 93.8369L58.5762 93.4488L58.6309 93.1559L58.1799 93.0271L58.2066 92.7548L58.8487 92.6576L59.8256 92.1888L60.1535 91.5881L61.1783 90.278L60.9454 89.2535L61.26 88.7081L62.202 88.7368L62.8364 88.2348L63.0412 86.2578L63.7445 85.365L63.8676 84.7917L63.2261 84.5863L62.8025 83.8922L61.3551 83.8775L60.2072 83.4403L60.1529 82.6226L59.7696 81.9535L58.7318 81.9381L58.132 80.9974L57.5996 80.7376L57.5722 81.0247L56.6028 81.082L56.2479 80.5882L55.2365 80.3828L54.4032 81.3448L53.0919 81.1226L52.9968 79.6461L52.0401 79.4827L52.4237 78.7584L52.314 78.3426L51.0567 79.1824L50.2655 79.0859L49.9835 78.4684L50.1557 77.8317L50.5917 77.0288L51.596 76.5209L53.5348 76.5202L53.5296 77.1112L54.2264 77.435L54.171 76.4252L54.6735 75.9203L55.6872 75.2549L55.7565 74.7868L56.767 73.7357L57.8419 73.141L57.7468 73.063L58.4746 72.3785L58.7413 72.4492L58.8637 72.6023L59.1398 72.2961L59.2076 72.2659L58.9047 72.2232L58.5976 72.1209V71.8265L58.7605 71.6933H59.1193L59.2834 71.7654L59.4257 72.0524L59.5996 72.0259V72.0009L59.6494 72.0178L60.1535 71.9406L60.2248 71.6947L60.5124 71.7669V72.0333L60.2457 72.2166H60.2463L60.2854 72.5088L61.1981 72.7899L61.2001 72.801L61.4101 72.7833L61.4241 72.3881L60.7009 72.0591L60.6595 71.8692L61.26 71.6646L61.2864 71.0904L60.6589 70.7084L60.6175 69.7406L59.7572 70.1631H59.4433L59.5257 69.4263L58.3547 69.1503L57.8699 69.5161V70.6319L56.9985 70.9079L56.6494 71.6351L56.2707 71.6962V70.7659L55.4514 70.6525L55.0418 70.3861L54.877 69.7832L56.342 68.9265L57.0587 68.7086L57.131 69.19L57.5302 69.1694L57.5612 68.9273L57.979 68.8677L57.9861 68.783L57.8064 68.7086L57.7653 68.4525L58.2789 68.4091L58.5889 68.0867L58.6058 68.0632L58.6094 68.0646L58.7038 67.9675L59.7829 67.8313L60.2603 68.2361L59.0086 68.9022L60.6012 69.2776L60.8077 68.7454H61.5036L61.7497 68.2817L61.2577 68.1589V67.5722L59.7146 66.8892L58.6491 67.0121L58.048 67.3264L58.0893 68.0904L57.4609 67.9947L57.3645 67.5722L57.9663 67.0261L56.8738 66.9716L56.5602 67.0666L56.4237 67.4346L56.8334 67.5038L56.7517 67.913L56.0555 67.9542L55.9464 68.2266L54.9366 68.2545C54.9366 68.2545 54.9086 67.6819 54.8679 67.6819L55.6598 67.6679L56.2619 67.0806L55.9333 66.9164L55.4964 67.3404L54.7715 67.2992L54.3348 66.6985H53.4058L52.4364 67.4221H53.3247L53.4058 67.6819L53.1753 67.8961L54.1587 67.9233L54.3088 68.2781L53.2016 68.2368L53.1479 67.9638L52.4517 67.8137L52.0828 67.609L51.2541 67.6156C54.0567 65.5701 57.4384 64.4691 60.9093 64.4721C65.0653 64.4721 68.8628 66.0243 71.7599 68.5747L71.5649 68.9236L70.8068 69.2202L70.487 69.5669L70.5606 69.9709L70.952 70.0254L71.1878 70.6142L71.8625 70.3426L71.9735 71.1302H71.7703L71.2164 71.0485L70.602 71.1515L70.0074 71.9906L69.1575 72.1238L69.0344 72.851L69.3932 72.9357L69.2894 73.4031L68.445 73.2338L67.671 73.4031L67.5065 73.8336L67.6407 74.7375L68.0953 74.9502L68.8576 74.9458L69.3724 74.8994L69.5294 74.4902L70.334 73.4457L70.8635 73.554L71.3851 73.0829L71.4821 73.4509L72.7655 74.3157L72.6085 74.5262L72.0302 74.4953L72.2529 74.8103L72.6085 74.8884L73.0256 74.7147L73.0168 74.2127L73.2015 74.12L73.0527 73.9624L72.1969 73.4855L71.9712 72.8518H72.6831L72.9107 73.077L73.5235 73.6047L73.5492 74.2429L74.1842 74.9185L74.4206 73.9926L74.8605 73.7527L74.9429 74.5101L75.3724 74.9811L76.2292 74.9664C76.3949 75.3926 76.5437 75.8261 76.674 76.2684L76.5851 76.3509ZM52.7686 71.1302L53.1987 70.9256L53.5878 71.0183L53.4537 71.5401L53.0339 71.6734L52.7686 71.1302ZM55.0515 72.3586V72.6965H54.0688L53.7005 72.5941L53.7927 72.3586L54.2648 72.1636H54.9099V72.3586H55.0515ZM55.5038 72.8297V73.1572L55.2577 73.3155L54.9513 73.3721V72.8297H55.5038ZM55.2267 72.6965V72.3071L55.5651 72.6148L55.2267 72.6965ZM55.3808 73.484V73.8027L55.1457 74.0383H54.6233L54.7054 73.6806L54.9519 73.6592L55.0027 73.5363L55.3808 73.484ZM54.0799 72.8297H54.6227L53.9265 73.802L53.6393 73.6482L53.7012 73.2389L54.0799 72.8297ZM56.3029 73.3721V73.6901H55.7806L55.638 73.484V73.1881H55.679L56.3029 73.3721ZM55.8207 72.9349L55.9692 72.7789L56.2206 72.9349L56.0193 73.1005L55.8207 72.9349ZM76.8518 77.1796L76.9032 77.1193C76.9247 77.212 76.9475 77.3048 76.968 77.399L76.8518 77.1796Z" fill="#111111"/>
<path d="M3 146.173V132.586M3 132.586V119H25.2323M3 132.586H25.2323" stroke="#111111" stroke-width="6" stroke-linecap="round" stroke-linejoin="round"/>
<path d="M35.6676 146.173V132.586M35.6676 132.586V119H56.6647M35.6676 132.586H56.6647" stroke="#111111" stroke-width="6" stroke-linecap="round" stroke-linejoin="round"/>
<path d="M67.1001 119H88.0972" stroke="#111111" stroke-width="6" stroke-linecap="round" stroke-linejoin="round"/>
<path d="M67.1001 132.586H88.0972" stroke="#111111" stroke-width="6" stroke-linecap="round" stroke-linejoin="round"/>
<path d="M67.1001 146.173H88.0972" stroke="#111111" stroke-width="6" stroke-linecap="round" stroke-linejoin="round"/>
<path d="M98.5326 146.173V119H112.423C112.423 119 119.53 118.936 119.53 126.125C119.53 134.243 108.87 132.586 108.87 132.586L119.207 146.173" stroke="#111111" stroke-width="6" stroke-linecap="round" stroke-linejoin="round"/>
</svg>
