<svg width="241" height="44" viewBox="0 0 241 44" fill="none" xmlns="http://www.w3.org/2000/svg">
<mask id="path-1-inside-1_173_73" fill="white">
<path d="M4.9405 2.70184C4.9405 1.20965 3.83453 0 2.47025 0C1.10597 0 0 1.20965 0 2.70184V40.5276C0 42.0197 1.10597 43.2294 2.47025 43.2294C3.83453 43.2294 4.9405 42.0197 4.9405 40.5276V2.70184Z"/>
</mask>
<path d="M2.47025 6C0.0260731 6 -1.0595 4.00596 -1.0595 2.70184H10.9405C10.9405 -1.58665 7.64299 -6 2.47025 -6V6ZM-1.0595 2.70184V40.5276H10.9405V2.70184H-1.0595ZM-1.0595 40.5276C-1.0595 39.2234 0.0260679 37.2294 2.47025 37.2294V49.2294C7.643 49.2294 10.9405 44.816 10.9405 40.5276H-1.0595ZM2.47025 37.2294C4.91444 37.2294 6 39.2234 6 40.5276H-6C-6 44.816 -2.7025 49.2294 2.47025 49.2294V37.2294ZM6 40.5276V2.70184H-6V40.5276H6ZM6 2.70184C6 4.00596 4.91443 6 2.47025 6V-6C-2.70249 -6 -6 -1.58665 -6 2.70184H6Z" fill="#111111" mask="url(#path-1-inside-1_173_73)"/>
<path d="M46.9347 6.35054C52.6032 6.35054 59.8819 5.63183 63.6806 7.11147C74.6358 11.3787 74.4793 29.4167 61.959 32.6876C58.2727 33.8064 52.2258 33.1667 46.9347 33.1667" stroke="#111111" stroke-width="6" stroke-linecap="round"/>
<path d="M11.1161 6.35054C17.0681 6.35054 24.7106 5.63183 28.6993 7.11147C40.2023 11.3787 40.0379 29.4167 26.8916 32.6876C23.0211 33.8064 16.6717 33.1667 11.1161 33.1667" stroke="#111111" stroke-width="6" stroke-linecap="round"/>
<path d="M114.182 20.5492C114.177 20.0301 114.15 19.5115 114.101 18.9947C113.938 17.3228 113.539 15.6823 112.916 14.1222C112.87 14.0081 112.828 13.8926 112.779 13.78C111.915 11.7458 110.682 9.88892 109.141 8.30316C108.877 8.02803 108.605 7.76147 108.324 7.50381C105.032 4.49991 100.734 2.83597 96.2766 2.83961C91.6025 2.83961 87.3439 4.63919 84.1515 7.57966C83.4074 8.2658 82.7226 9.01302 82.1036 9.8135C79.6786 12.9379 78.3641 16.7802 78.3673 20.734C78.3673 30.6019 86.4019 38.6291 96.2773 38.6291C103.224 38.6291 109.255 34.6545 112.223 28.8634C113.031 27.2896 113.598 25.6038 113.907 23.8621C114.087 22.8457 114.186 21.8005 114.186 20.734C114.187 20.6722 114.183 20.6111 114.182 20.5492ZM110.811 13.3972L110.915 13.2809C111.051 13.5452 111.179 13.8138 111.3 14.0862L111.131 14.0795L110.811 14.1237V13.3972ZM108.223 10.275L108.226 9.47565C108.508 9.77374 108.779 10.0807 109.038 10.3986L108.716 10.8785L107.588 10.8682L107.517 10.6334L108.223 10.275ZM86.6191 8.28845V8.25826H86.9779L87.0089 8.13533H87.596V8.39149L87.4273 8.6167H86.6184L86.6191 8.28845ZM87.1922 9.08704C87.1922 9.08704 87.551 9.02594 87.582 9.02594C87.6129 9.02594 87.582 9.38364 87.582 9.38364L86.7731 9.43443L86.6191 9.25044L87.1922 9.08704ZM111.952 16.1905H110.642L109.843 15.5965L109.003 15.6782V16.1905H108.737L108.45 15.9859L106.994 15.6171V14.675L105.149 14.8185L104.578 15.1254H103.846L103.487 15.0894L102.598 15.5825V16.5106L100.78 17.8208L100.931 18.3801H101.3L101.203 18.913L100.944 19.008L100.93 20.4006L102.5 22.1876H103.184L103.225 22.0787H104.454L104.808 21.7512H105.505L105.888 22.1339L106.926 22.2414L106.789 23.6214L107.941 25.6551L107.334 26.8143L107.376 27.3605L107.854 27.8367V29.1497L108.481 29.9932V31.084H109.023C106.006 34.7856 101.414 37.1562 96.276 37.1562C87.2137 37.1572 79.8405 29.7894 79.8405 20.734C79.8405 18.4545 80.309 16.2817 81.1524 14.307V13.7947L81.7405 13.0815C81.9444 12.6965 82.1632 12.3211 82.3966 11.9553L82.4234 12.2534L81.7405 13.0815C81.5275 13.4816 81.3322 13.8905 81.1534 14.307V15.2417L81.8362 15.57V16.8691L82.4911 17.9856L83.0235 18.0673L83.0922 17.6846L82.4637 16.716L82.3406 15.7746H82.7089L82.8646 16.7432L83.7728 18.0673L83.5386 18.495L84.116 19.3775L85.5504 19.7322V19.5004L86.1241 19.5821L86.0697 19.9913L86.5204 20.0738L87.2166 20.2636L88.2 21.3832L89.456 21.4781L89.5791 22.5019L88.7194 23.1025L88.6787 24.0167L88.5559 24.576L89.7992 26.1313L89.8943 26.6642C89.8943 26.6642 90.3453 26.7863 90.4003 26.7863C90.455 26.7863 91.4111 27.5099 91.4111 27.5099V30.3208L91.752 30.4165L91.5201 31.7133L92.0939 32.4781L91.9877 33.7633L92.7458 35.0947L93.7188 35.9439L94.6973 35.9618L94.793 35.6475L94.074 35.0423L94.1154 34.742L94.244 34.374L94.2714 33.9986L93.7852 33.9839L93.54 33.6765L93.9435 33.2884L93.9982 32.9955L93.5472 32.8667L93.5739 32.5944L94.216 32.4972L95.1929 32.0284L95.5208 31.4277L96.5456 30.1176L96.3127 29.0931L96.6273 28.5477L97.5693 28.5764L98.2037 28.0744L98.4085 26.0974L99.1119 25.2046L99.2349 24.6313L98.5935 24.4259L98.1698 23.7318L96.7224 23.7171L95.5745 23.2799L95.5202 22.4622L95.1369 21.7931L94.0991 21.7777L93.4993 20.837L92.9669 20.5772L92.9396 20.8643L91.9701 20.9216L91.6152 20.4278L90.6038 20.2224L89.7705 21.1844L88.4592 20.9622L88.3641 19.4857L87.4074 19.3223L87.791 18.598L87.6813 18.1822L86.424 19.022L85.6328 18.9255L85.3508 18.308L85.523 17.6713L85.959 16.8684L86.9633 16.3605L88.9021 16.3598L88.8969 16.9508L89.5937 17.2746L89.5384 16.2648L90.0408 15.7599L91.0545 15.0945L91.1238 14.6264L92.1343 13.5753L93.2092 12.9806L93.1141 12.9026L93.8419 12.2181L94.1086 12.2888L94.231 12.4418L94.5071 12.1357L94.5749 12.1055L94.272 12.0628L93.965 11.9605V11.6661L94.1278 11.5329H94.4866L94.6507 11.605L94.793 11.892L94.9669 11.8655V11.8405L95.0167 11.8574L95.5208 11.7802L95.5921 11.5343L95.8797 11.6065V11.8729L95.613 12.0562H95.6136L95.6527 12.3484L96.5654 12.6295L96.5674 12.6406L96.7774 12.6229L96.7914 12.2277L96.0682 11.8987L96.0268 11.7088L96.6273 11.5042L96.6537 10.93L96.0262 10.548L95.9848 9.58016L95.1245 10.0027H94.8106L94.893 9.26589L93.722 8.98986L93.2372 9.35569V10.4715L92.3658 10.7475L92.0167 11.4747L91.638 11.5358V10.6055L90.8187 10.4921L90.4091 10.2257L90.2443 9.62284L91.7093 8.76611L92.426 8.54825L92.4983 9.02962L92.8975 9.00902L92.9285 8.76686L93.3463 8.70725L93.3534 8.62259L93.1737 8.54825L93.1326 8.29213L93.6462 8.24869L93.9562 7.92632L93.9731 7.90277L93.9767 7.90423L94.0711 7.80708L95.1503 7.67092L95.6276 8.07573L94.3759 8.74184L95.9686 9.1172L96.175 8.58505H96.8709L97.117 8.12135L96.625 7.99846V7.41183L95.0819 6.72878L94.0164 6.8517L93.4153 7.16599L93.4566 7.93L92.8282 7.83431L92.7318 7.41183L93.3336 6.86569L92.2411 6.81122L91.9275 6.90616L91.7911 7.27418L92.2007 7.34338L92.119 7.75262L91.4228 7.79384L91.3137 8.06616L90.3039 8.09411C90.3039 8.09411 90.2759 7.52148 90.2352 7.52148L91.0271 7.50752L91.6292 6.92015L91.3007 6.75601L90.8637 7.17998L90.1388 7.13876L89.7021 6.53815H88.7731L87.8037 7.26168H88.692L88.7731 7.52148L88.5426 7.73566L89.526 7.7629L89.6761 8.11767L88.569 8.07645L88.5152 7.8034L87.819 7.65325L87.4501 7.44863L86.6214 7.45524C89.4241 5.40967 92.8057 4.30866 96.2766 4.31165C100.433 4.31165 104.23 5.86394 107.127 8.4143L106.932 8.76318L106.174 9.05981L105.854 9.40648L105.928 9.81054L106.319 9.86501L106.555 10.4538L107.23 10.1822L107.341 10.9698H107.138L106.584 10.8881L105.969 10.9911L105.375 11.8302L104.525 11.9634L104.402 12.6906L104.761 12.7753L104.657 13.2427L103.812 13.0734L103.038 13.2427L102.874 13.6732L103.008 14.5771L103.463 14.7898L104.225 14.7854L104.74 14.739L104.897 14.3298L105.701 13.2853L106.231 13.3936L106.752 12.9225L106.849 13.2905L108.133 14.1553L107.976 14.3658L107.397 14.3349L107.62 14.6499L107.976 14.728L108.393 14.5543L108.384 14.0523L108.569 13.9596L108.42 13.802L107.564 13.3251L107.339 12.6914H108.05L108.278 12.9166L108.891 13.4443L108.917 14.0825L109.552 14.7581L109.788 13.8322L110.228 13.5923L110.31 14.3497L110.74 14.8207L111.596 14.806C111.762 15.2322 111.911 15.6657 112.041 16.108L111.952 16.1905ZM88.1359 10.9698L88.566 10.7652L88.9552 10.8579L88.821 11.3797L88.4013 11.513L88.1359 10.9698ZM90.4189 12.1982V12.5361H89.4361L89.0678 12.4337L89.16 12.1982L89.6321 12.0032H90.2772V12.1982H90.4189ZM90.8712 12.6693V12.9968L90.625 13.1551L90.3186 13.2117V12.6693H90.8712ZM90.594 12.5361V12.1467L90.9324 12.4544L90.594 12.5361ZM90.7481 13.3236V13.6423L90.513 13.8779H89.9907L90.0727 13.5202L90.3192 13.4988L90.37 13.3759L90.7481 13.3236ZM89.4472 12.6693H89.99L89.2938 13.6416L89.0066 13.4878L89.0685 13.0785L89.4472 12.6693ZM91.6702 13.2117V13.5297H91.1479L91.0053 13.3236V13.0277H91.0463L91.6702 13.2117ZM91.188 12.7745L91.3365 12.6185L91.5879 12.7745L91.3866 12.9401L91.188 12.7745ZM112.219 17.0192L112.271 16.9589C112.292 17.0516 112.315 17.1444 112.335 17.2386L112.219 17.0192Z" fill="#111111"/>
<path d="M121.47 33.3488V19.7624M121.47 19.7624V6.17603H143.702M121.47 19.7624H143.702" stroke="#111111" stroke-width="6" stroke-linecap="round" stroke-linejoin="round"/>
<path d="M154.138 33.3488V19.7624M154.138 19.7624V6.17603H175.135M154.138 19.7624H175.135" stroke="#111111" stroke-width="6" stroke-linecap="round" stroke-linejoin="round"/>
<path d="M185.57 6.17603H206.567" stroke="#111111" stroke-width="6" stroke-linecap="round" stroke-linejoin="round"/>
<path d="M185.57 19.762H206.567" stroke="#111111" stroke-width="6" stroke-linecap="round" stroke-linejoin="round"/>
<path d="M185.57 33.3486H206.567" stroke="#111111" stroke-width="6" stroke-linecap="round" stroke-linejoin="round"/>
<path d="M217.003 33.3488V6.17604H230.893C230.893 6.17604 238 6.11206 238 13.3006C238 21.4193 227.34 19.7624 227.34 19.7624L237.677 33.3488" stroke="#111111" stroke-width="6" stroke-linecap="round" stroke-linejoin="round"/>
</svg>
