<svg width="23" height="26" viewBox="0 0 23 26" fill="none" xmlns="http://www.w3.org/2000/svg">
<path d="M6.80005 8.26666L6.80005 7C6.80005 4.20176 9.06847 1.93333 11.8667 1.93333V1.93333C14.665 1.93333 16.9334 4.20175 16.9334 7L16.9334 8.26666" stroke="#376147" stroke-width="2" stroke-linecap="round"/>
<path d="M15.6666 15.8666V13.3333" stroke="#376147" stroke-width="2" stroke-linecap="round"/>
<path d="M8.06665 15.8666V13.3333" stroke="#376147" stroke-width="2" stroke-linecap="round"/>
<path d="M1.73328 12.2667C1.73328 10.381 1.73328 9.43824 2.31906 8.85245C2.90485 8.26666 3.84766 8.26666 5.73328 8.26666H17.9999C19.8856 8.26666 20.8284 8.26666 21.4142 8.85245C21.9999 9.43824 21.9999 10.381 21.9999 12.2667V16.7333C21.9999 20.5046 21.9999 22.3902 20.8284 23.5618C19.6568 24.7333 17.7712 24.7333 13.9999 24.7333H9.73328C5.96204 24.7333 4.07642 24.7333 2.90485 23.5618C1.73328 22.3902 1.73328 20.5046 1.73328 16.7333V12.2667Z" stroke="#376147" stroke-width="2"/>
</svg>
