<svg width="18" height="18" viewBox="0 0 18 18" fill="none" xmlns="http://www.w3.org/2000/svg">
<path d="M5.44446 9L5.44446 5.44445C5.44446 3.48077 7.03633 1.88889 9.00001 1.88889V1.88889C10.9637 1.88889 12.5556 3.48077 12.5556 5.44445L12.5556 9" stroke="black" stroke-width="2" stroke-linecap="round"/>
<path d="M1.58324 10.0011C1.72831 8.26025 1.80085 7.3898 2.37494 6.86156C2.94902 6.33333 3.82249 6.33333 5.56942 6.33333H12.4306C14.1775 6.33333 15.051 6.33333 15.6251 6.86156C16.1992 7.3898 16.2717 8.26025 16.4168 10.0011L16.8195 14.8339C16.904 15.8474 16.9462 16.3542 16.6491 16.6771C16.352 17 15.8435 17 14.8264 17H3.1736C2.15655 17 1.64802 17 1.35092 16.6771C1.05382 16.3542 1.09605 15.8474 1.18051 14.8339L1.58324 10.0011Z" stroke="black" stroke-width="2"/>
</svg>
