<svg width="28" height="28" viewBox="0 0 28 28" fill="none" xmlns="http://www.w3.org/2000/svg">
<g opacity="0.6">
<path d="M19.3511 12.7089L19.3511 12.7089L19.3707 12.6893L19.3743 12.6856C19.6878 12.3722 19.9579 12.1022 20.145 11.8569C20.3456 11.5939 20.4975 11.3015 20.4975 10.9411C20.4975 10.5808 20.3456 10.2883 20.145 10.0254C19.9579 9.78008 19.6878 9.51005 19.3744 9.19664L19.3511 9.17338L19.3511 9.17337L19.3328 9.15514L19.3328 9.15513L18.8266 8.64886L18.8033 8.62558C18.4899 8.31214 18.2199 8.04208 17.9745 7.8549C17.7116 7.6543 17.4192 7.50241 17.0588 7.50241C16.6984 7.50241 16.406 7.6543 16.1431 7.8549C15.8977 8.04208 15.6277 8.31214 15.3143 8.62557L15.291 8.64886L7.03813 16.9018C7.02711 16.9128 7.01616 16.9237 7.0053 16.9345C6.84283 17.0967 6.699 17.2402 6.59764 17.4192C6.49627 17.5983 6.4472 17.7954 6.39176 18.0182C6.38806 18.0331 6.38432 18.0481 6.38054 18.0632L5.59937 21.1879L6.08444 21.3092L5.59937 21.1879C5.59715 21.1968 5.59492 21.2057 5.59268 21.2146C5.55344 21.3713 5.51153 21.5386 5.49778 21.6791C5.48265 21.8339 5.48618 22.0949 5.69559 22.3043C5.905 22.5138 6.16605 22.5173 6.32078 22.5021C6.46131 22.4884 6.62865 22.4465 6.78533 22.4073C6.79427 22.405 6.80317 22.4028 6.81203 22.4006L6.81204 22.4006L6.83221 22.3955L9.93675 21.6194C9.95187 21.6156 9.96688 21.6119 9.98176 21.6082C10.2045 21.5527 10.4017 21.5037 10.5807 21.4023C10.7597 21.3009 10.9033 21.1571 11.0654 20.9946C11.0762 20.9838 11.0872 20.9728 11.0982 20.9618L19.3511 12.7089Z" stroke="#222222"/>
<path d="M14.2646 9.26465L17.6176 7.02936L20.9705 10.3823L18.7352 13.7352L14.2646 9.26465Z" fill="#222222"/>
</g>
</svg>
