<svg width="39" height="41" viewBox="0 0 39 41" fill="none" xmlns="http://www.w3.org/2000/svg">
<path d="M38.0129 10.9794L27.6767 0.23915C27.6039 0.163539 27.5166 0.10339 27.42 0.0622986C27.3234 0.0212076 27.2195 1.90396e-05 27.1145 0L11.7092 0C9.98513 0 8.58248 1.4021 8.58248 3.12544V14.044H2.33928C1.04939 14.044 0 15.0931 0 16.3827V28.0901C0 29.3796 1.04939 30.4287 2.33928 30.4287H8.58248V37.4516C8.58248 39.172 9.98513 40.5716 11.7092 40.5716H35.1043C36.8283 40.5716 38.231 39.1727 38.231 37.4534V11.5205C38.2309 11.3187 38.1528 11.1248 38.0129 10.9794ZM27.3078 2.10632L35.7929 10.9231H27.3078V2.10632ZM2.33928 28.8683C1.9098 28.8683 1.5605 28.5192 1.5605 28.0901V16.3827C1.5605 15.9536 1.90988 15.6045 2.33928 15.6045H23.4081C23.8376 15.6045 24.1869 15.9536 24.1869 16.3827V28.0901C24.1869 28.5192 23.8376 28.8683 23.4081 28.8683H2.33928ZM36.6705 37.4534C36.6705 38.3123 35.9678 39.0112 35.1042 39.0112H11.7092C10.8455 39.0112 10.1429 38.3116 10.1429 37.4517V30.4287H23.4081C24.698 30.4287 25.7474 29.3796 25.7474 28.0901V16.3827C25.7474 15.0931 24.698 14.044 23.4081 14.044H10.1429V3.12544C10.1429 2.26242 10.8455 1.56042 11.7092 1.56042H25.7473V11.7033C25.7473 12.1342 26.0967 12.4835 26.5276 12.4835H36.6705V37.4534Z" fill="black"/>
</svg>
