<svg width="16" height="18" viewBox="0 0 16 18" fill="none" xmlns="http://www.w3.org/2000/svg">
<path d="M15.9948 9.22536V9.04082C15.9948 7.94112 15.105 7.04652 14.0114 7.04652C13.7644 7.04652 13.5279 7.09252 13.3096 7.17584C13.124 6.26848 12.3234 5.58403 11.3668 5.58403C11.107 5.58403 10.859 5.635 10.6315 5.72674C10.3914 4.88931 9.59427 4.2545 8.67809 4.2545C8.43675 4.2548 8.19759 4.30037 7.97287 4.38887V1.9943C7.97287 0.894598 7.08305 0 5.98942 0C4.8958 0 4.00598 0.894598 4.00598 1.9943V7.8672C3.65883 7.42145 3.24143 7.03296 2.75694 6.83273C2.2163 6.60937 1.64736 6.63605 1.11139 6.91002C0.125658 7.414 -0.280728 8.62857 0.205436 9.61766L2.66932 14.6311C2.73896 14.7687 4.40866 18 7.43161 18H10.9577C13.7381 18 16 15.7137 16 12.9029L15.9973 9.22536H15.9948ZM10.9578 16.6705H7.4317C5.25414 16.6705 3.89755 14.1233 3.84863 14.0295L1.39092 9.02867C1.22131 8.68362 1.36183 8.27359 1.71083 8.09517C1.90318 7.99678 2.07058 7.98676 2.25367 8.06219C2.98367 8.36311 3.70027 9.81327 3.98024 10.6561L4.19269 11.2995L5.32837 10.8954V1.9943C5.32837 1.6277 5.62491 1.32953 5.98951 1.32953C6.35411 1.32953 6.65066 1.6277 6.65066 1.9943V9.66127H7.98495V6.29312C7.98495 5.922 8.31534 5.58403 8.67818 5.58403C9.05389 5.58403 9.38341 5.8947 9.38341 6.2488V9.88285H10.7057V7.57833C10.7057 7.21174 11.0022 6.91357 11.3669 6.91357C11.7315 6.91357 12.028 7.21174 12.028 7.57833V10.5033H13.3503V9.04082C13.3503 8.67422 13.6468 8.37605 14.0114 8.37605C14.376 8.37605 14.6726 8.67422 14.6726 9.04082V9.99161H14.6757L14.6779 12.9035C14.6778 14.9806 13.009 16.6705 10.9578 16.6705Z" fill="#7E8581"/>
</svg>
