<svg width="16" height="15" viewBox="0 0 16 15" fill="none" xmlns="http://www.w3.org/2000/svg">
<path d="M2.33801 8.43116L7.55247 13.3296L7.55248 13.3296C7.65088 13.422 7.70008 13.4683 7.75051 13.4973C7.90495 13.5862 8.09505 13.5862 8.24949 13.4973C8.29992 13.4683 8.34913 13.422 8.44753 13.3296L13.662 8.43116C15.1291 7.05294 15.3073 4.78495 14.0734 3.19455L13.8413 2.89551C12.3652 0.992936 9.40222 1.31201 8.365 3.48524C8.21849 3.79222 7.78151 3.79222 7.635 3.48524C6.59778 1.31201 3.63479 0.992935 2.15866 2.89551L1.92664 3.19455C0.692711 4.78495 0.870872 7.05294 2.33801 8.43116Z" stroke="#6E6F73" stroke-width="2"/>
</svg>
