<svg width="205" height="37" viewBox="0 0 205 37" fill="none" xmlns="http://www.w3.org/2000/svg">
<mask id="path-1-inside-1_252_672" fill="white">
<path d="M4.1932 2.29316C4.1932 1.02668 3.25452 0 2.0966 0C0.93868 0 0 1.02668 0 2.29316V34.3973C0 35.6638 0.93868 36.6905 2.0966 36.6905C3.25452 36.6905 4.1932 35.6638 4.1932 34.3973V2.29316Z"/>
</mask>
<path d="M2.0966 6C-0.55394 6 -1.8068 3.82299 -1.8068 2.29316H10.1932C10.1932 -1.76963 7.06298 -6 2.0966 -6V6ZM-1.8068 2.29316V34.3973H10.1932V2.29316H-1.8068ZM-1.8068 34.3973C-1.8068 32.8675 -0.553938 30.6905 2.0966 30.6905V42.6905C7.06298 42.6905 10.1932 38.4601 10.1932 34.3973H-1.8068ZM2.0966 30.6905C4.74714 30.6905 6 32.8675 6 34.3973H-6C-6 38.4601 -2.86978 42.6905 2.0966 42.6905V30.6905ZM6 34.3973V2.29316H-6V34.3973H6ZM6 2.29316C6 3.82299 4.74714 6 2.0966 6V-6C-2.86978 -6 -6 -1.76963 -6 2.29316H6Z" fill="#111111" mask="url(#path-1-inside-1_252_672)"/>
<path d="M39.8354 5.39006C44.6465 5.39006 50.8242 4.78006 54.0483 6.03589C63.3464 9.6577 63.2136 24.9672 52.5871 27.7434C49.4584 28.693 44.3261 28.15 39.8354 28.15" stroke="#111111" stroke-width="6" stroke-linecap="round"/>
<path d="M9.43469 5.39006C14.4864 5.39006 20.9729 4.78006 24.3582 6.03589C34.1213 9.6577 33.9818 24.9672 22.824 27.7434C19.5389 28.693 14.15 28.15 9.43469 28.15" stroke="#111111" stroke-width="6" stroke-linecap="round"/>
<path d="M96.9107 17.441C96.9069 17.0004 96.8839 16.5603 96.8422 16.1217C96.704 14.7026 96.3652 13.3103 95.8362 11.9861C95.7972 11.8893 95.7616 11.7912 95.7204 11.6957C94.9869 9.96918 93.94 8.39319 92.6325 7.04729C92.4086 6.81378 92.177 6.58754 91.9385 6.36886C89.1449 3.81932 85.4973 2.40707 81.7137 2.41016C77.7467 2.41016 74.1322 3.93754 71.4227 6.43323C70.7912 7.01559 70.2099 7.64978 69.6846 8.32918C67.6264 10.981 66.5107 14.2421 66.5134 17.5978C66.5134 25.9731 73.3327 32.7861 81.7143 32.7861C87.6102 32.7861 92.7289 29.4127 95.2484 24.4976C95.934 23.1618 96.4155 21.731 96.6769 20.2528C96.8303 19.3901 96.9141 18.503 96.9141 17.5978C96.9146 17.5454 96.9116 17.4935 96.9107 17.441ZM94.05 11.3708L94.1382 11.2721C94.2537 11.4964 94.3617 11.7244 94.4651 11.9555L94.3211 11.9499L94.05 11.9874V11.3708ZM91.8534 8.72087L91.8559 8.04243C92.0949 8.29544 92.3249 8.55593 92.5449 8.8258L92.2713 9.23312L91.3139 9.22436L91.2539 9.0251L91.8534 8.72087ZM73.517 7.03481V7.00918H73.8216L73.8479 6.90486H74.3462V7.12226L74.203 7.31341H73.5165L73.517 7.03481ZM74.0035 7.71261C74.0035 7.71261 74.308 7.66075 74.3343 7.66075C74.3605 7.66075 74.3343 7.96434 74.3343 7.96434L73.6478 8.00745L73.517 7.85129L74.0035 7.71261ZM95.0184 13.7416H93.906L93.2283 13.2374L92.515 13.3068V13.7416H92.2892L92.0455 13.5679L90.8101 13.2549V12.4553L89.2444 12.5771L88.7594 12.8376H88.1378L87.8332 12.807L87.0787 13.2256V14.0133L85.5363 15.1253L85.6645 15.6H85.9771L85.8953 16.0523L85.675 16.1329L85.6631 17.3148L86.9961 18.8316H87.5765L87.6113 18.7391H88.6543L88.955 18.4612H89.5465L89.8709 18.786L90.7526 18.8772L90.6357 20.0485L91.614 21.7745L91.0989 22.7584L91.134 23.222L91.5397 23.6262V24.7406L92.0723 25.4565V26.3823H92.5324C89.9715 29.524 86.0741 31.536 81.7132 31.536C74.0217 31.5368 67.7638 25.2835 67.7638 17.5978C67.7638 15.6631 68.1615 13.819 68.8773 12.143V11.7082L69.3764 11.1028C69.5494 10.7761 69.7351 10.4575 69.9333 10.147L69.956 10.4001L69.3764 11.1028C69.1956 11.4425 69.0298 11.7895 68.8781 12.143V12.9363L69.4576 13.2149V14.3175L70.0134 15.2652L70.4653 15.3345L70.5236 15.0097L69.9902 14.1876L69.8858 13.3886H70.1983L70.3304 14.2107L71.1013 15.3345L70.9025 15.6975L71.3925 16.4465L72.61 16.7476V16.5508L73.097 16.6202L73.0508 16.9675L73.4333 17.0375L74.0242 17.1986L74.8588 18.1488L75.9248 18.2294L76.0293 19.0983L75.2996 19.6081L75.2651 20.384L75.1609 20.8587L76.2161 22.1787L76.2968 22.631C76.2968 22.631 76.6796 22.7347 76.7263 22.7347C76.7727 22.7347 77.5842 23.3488 77.5842 23.3488V25.7345L77.8735 25.8157L77.6767 26.9164L78.1637 27.5655L78.0736 28.6563L78.717 29.7863L79.5428 30.5071L80.3733 30.5223L80.4546 30.2555L79.8443 29.7419L79.8795 29.487L79.9886 29.1747L80.0118 28.856L79.5992 28.8436L79.3911 28.5826L79.7335 28.2533L79.78 28.0046L79.3972 27.8953L79.4198 27.6642L79.9649 27.5817L80.794 27.1838L81.0723 26.674L81.942 25.5621L81.7444 24.6925L82.0114 24.2296L82.811 24.254L83.3493 23.8279L83.5232 22.15L84.1201 21.3922L84.2246 20.9056L83.6802 20.7313L83.3206 20.1422L82.0921 20.1297L81.1179 19.7587L81.0717 19.0646L80.7464 18.4968L79.8656 18.4836L79.3566 17.6853L78.9047 17.4647L78.8815 17.7084L78.0587 17.7571L77.7574 17.3379L76.899 17.1636L76.1918 17.9801L75.0788 17.7915L74.9981 16.5383L74.1861 16.3997L74.5117 15.7849L74.4186 15.432L73.3515 16.1448L72.6799 16.0629L72.4406 15.5388L72.5868 14.9984L72.9568 14.3169L73.8092 13.8859L75.4547 13.8852L75.4503 14.3869L76.0417 14.6617L75.9947 13.8046L76.4212 13.3761L77.2815 12.8114L77.3404 12.4141L78.198 11.522L79.1103 11.0173L79.0296 10.951L79.6473 10.3701L79.8737 10.43L79.9776 10.56L80.2119 10.3001L80.2694 10.2745L80.0124 10.2383L79.7518 10.1514V9.90153L79.89 9.78847H80.1945L80.3338 9.84969L80.4546 10.0933L80.6022 10.0708V10.0496L80.6445 10.064L81.0723 9.99837L81.1328 9.78971L81.3768 9.85094V10.0771L81.1505 10.2326H81.1511L81.1842 10.4806L81.9589 10.7193L81.9606 10.7286L82.1388 10.7136L82.1507 10.3782L81.5369 10.0989L81.5018 9.93778L82.0114 9.76412L82.0338 9.27683L81.5012 8.95261L81.4661 8.13113L80.7359 8.48973H80.4695L80.5394 7.8644L79.5456 7.63012L79.1341 7.94062V8.88766L78.3945 9.12191L78.0982 9.73912L77.7768 9.79096V9.00135L77.0814 8.90514L76.7338 8.679L76.5939 8.16736L77.8373 7.44022L78.4456 7.25531L78.507 7.66387L78.8458 7.64639L78.8721 7.44085L79.2267 7.39026L79.2327 7.31841L79.0802 7.25531L79.0454 7.03793L79.4812 7.00107L79.7443 6.72746L79.7587 6.70747L79.7617 6.70871L79.8419 6.62625L80.7578 6.51069L81.1629 6.85427L80.1005 7.41962L81.4523 7.73821L81.6275 7.28654H82.2181L82.4271 6.89298L82.0095 6.78868V6.29079L80.6997 5.71105L79.7954 5.81538L79.2852 6.08214L79.3203 6.73058L78.7869 6.64937L78.7051 6.29079L79.2159 5.82726L78.2886 5.78103L78.0225 5.86161L77.9067 6.17396L78.2544 6.23269L78.185 6.58003L77.5941 6.61501L77.5015 6.84615L76.6445 6.86987C76.6445 6.86987 76.6207 6.38385 76.5862 6.38385L77.2583 6.37201L77.7693 5.87348L77.4905 5.73417L77.1196 6.09401L76.5044 6.05902L76.1337 5.54926H75.3453L74.5225 6.16335H75.2764L75.3453 6.38385L75.1496 6.56564L75.9842 6.58875L76.1116 6.88986L75.172 6.85487L75.1264 6.62313L74.5355 6.49569L74.2223 6.32202L73.519 6.32763C75.8977 4.59148 78.7679 3.65701 81.7137 3.65955C85.2411 3.65955 88.4642 4.97703 90.9231 7.14162L90.7575 7.43773L90.1142 7.68949L89.8427 7.98373L89.9052 8.32667L90.2374 8.3729L90.4375 8.87266L91.0102 8.64214L91.1044 9.31058H90.9319L90.4618 9.24124L89.9403 9.32869L89.4356 10.0408L88.7143 10.1539L88.6098 10.7711L88.9144 10.843L88.8262 11.2396L88.1096 11.096L87.4527 11.2396L87.3131 11.6051L87.427 12.3722L87.8128 12.5528L88.4598 12.549L88.8967 12.5097L89.0299 12.1623L89.7129 11.2759L90.1622 11.3677L90.605 10.9679L90.6873 11.2802L91.7765 12.0143L91.6433 12.1929L91.1525 12.1667L91.3415 12.4341L91.6433 12.5003L91.9974 12.3529L91.9899 11.9268L92.1466 11.8481L92.0203 11.7144L91.294 11.3096L91.1025 10.7717H91.7066L91.8998 10.9629L92.4199 11.4108L92.4418 11.9524L92.9807 12.5259L93.1814 11.74L93.5547 11.5364L93.6247 12.1792L93.9892 12.579L94.7163 12.5665C94.857 12.9282 94.9833 13.2961 95.0939 13.6716L95.0184 13.7416ZM74.8044 9.31058L75.1695 9.13691L75.4998 9.21561L75.3859 9.65852L75.0296 9.7716L74.8044 9.31058ZM76.7421 10.3532V10.6399H75.908L75.5954 10.5531L75.6736 10.3532L76.0743 10.1876H76.6218V10.3532H76.7421ZM77.1259 10.753V11.031L76.917 11.1653L76.6569 11.2134V10.753H77.1259ZM76.8907 10.6399V10.3095L77.1779 10.5706L76.8907 10.6399ZM77.0215 11.3083V11.5789L76.8219 11.7788H76.3786L76.4483 11.4752L76.6575 11.4571L76.7006 11.3527L77.0215 11.3083ZM75.9173 10.753H76.3781L75.7872 11.5782L75.5434 11.4477L75.5959 11.1003L75.9173 10.753ZM77.8042 11.2134V11.4833H77.3609L77.2398 11.3083V11.0572H77.2746L77.8042 11.2134ZM77.3948 10.8423L77.5209 10.7099L77.7342 10.8423L77.5634 10.9829L77.3948 10.8423ZM95.2448 14.445L95.2884 14.3937C95.3067 14.4724 95.326 14.5512 95.3434 14.6311L95.2448 14.445Z" fill="#111111"/>
<path d="M103.097 28.3045V16.7732M103.097 16.7732V5.24194H121.966M103.097 16.7732H121.966" stroke="#111111" stroke-width="6" stroke-linecap="round" stroke-linejoin="round"/>
<path d="M130.823 28.3045V16.7732M130.823 16.7732V5.24194H148.644M130.823 16.7732H148.644" stroke="#111111" stroke-width="6" stroke-linecap="round" stroke-linejoin="round"/>
<path d="M157.501 5.24194H175.322" stroke="#111111" stroke-width="6" stroke-linecap="round" stroke-linejoin="round"/>
<path d="M157.501 16.7727H175.322" stroke="#111111" stroke-width="6" stroke-linecap="round" stroke-linejoin="round"/>
<path d="M157.501 28.3042H175.322" stroke="#111111" stroke-width="6" stroke-linecap="round" stroke-linejoin="round"/>
<path d="M184.179 28.3045V5.24196H195.968C195.968 5.24196 202 5.18765 202 11.2889C202 18.1795 192.952 16.7733 192.952 16.7733L201.726 28.3045" stroke="#111111" stroke-width="6" stroke-linecap="round" stroke-linejoin="round"/>
</svg>
