<svg xmlns="http://www.w3.org/2000/svg" xml:space="preserve" viewBox="0 0 512 512">
  <path d="M256 109.27c-10 0-18.12-8.1-18.12-18.12V18.12a18.12 18.12 0 1 1 36.24 0v73.03A18.12 18.12 0 0 1 256 109.27z" data-original="#000000"/>
  <path d="M256 512c-10 0-18.12-8.11-18.12-18.12v-73.03a18.12 18.12 0 1 1 36.24 0v73.03A18.12 18.12 0 0 1 256 512z" data-original="#000000" opacity=".52"/>
  <path d="M345.9 494.36a18.13 18.13 0 0 1-16.78-11.27l-27.6-67.62a18.12 18.12 0 0 1 33.56-13.7l27.6 67.62a18.12 18.12 0 0 1-9.94 23.62 18.04 18.04 0 0 1-6.84 1.35z" data-original="#000000" opacity=".58"/>
  <path d="M318.3 121.5a18.12 18.12 0 0 1-16.77-24.98l27.59-67.6a18.12 18.12 0 1 1 33.56 13.7l-27.6 67.6a18.13 18.13 0 0 1-16.79 11.28z" data-original="#000000" opacity=".94"/>
  <path d="M166.1 494.36a18.12 18.12 0 0 1-16.77-24.98l27.6-67.6a18.12 18.12 0 1 1 33.55 13.7l-27.6 67.6a18.13 18.13 0 0 1-16.78 11.28z" data-original="#000000" opacity=".46"/>
  <path d="M35.77 364.02a18.12 18.12 0 0 1-6.86-34.9l67.61-27.6a18.11 18.11 0 1 1 13.7 33.55l-67.6 27.6a18.04 18.04 0 0 1-6.85 1.35z" data-original="#000000" opacity=".36"/>
  <path d="M408.63 211.83a18.12 18.12 0 0 1-6.86-34.9l67.62-27.6a18.11 18.11 0 1 1 13.7 33.55l-67.62 27.6a18.06 18.06 0 0 1-6.84 1.35z" data-original="#000000" opacity=".82"/>
  <path d="M103.37 211.83c-2.28 0-4.6-.43-6.84-1.35l-67.62-27.6a18.12 18.12 0 1 1 13.7-33.55l67.61 27.6a18.12 18.12 0 0 1-6.85 34.9z" data-original="#000000" opacity=".24"/>
  <path d="M476.23 364.02c-2.28 0-4.6-.43-6.84-1.35l-67.61-27.6a18.12 18.12 0 1 1 13.7-33.55l67.6 27.6a18.12 18.12 0 0 1-6.85 34.9z" data-original="#000000" opacity=".7"/>
  <path d="M372.56 157.56a18.12 18.12 0 0 1-12.81-30.94l51.64-51.64a18.12 18.12 0 1 1 25.63 25.63l-51.64 51.64a18.07 18.07 0 0 1-12.81 5.3z" data-original="#000000" opacity=".88"/>
  <path d="M87.8 442.33a18.12 18.12 0 0 1-12.82-30.94l51.64-51.64a18.12 18.12 0 1 1 25.63 25.63l-51.64 51.64a18.07 18.07 0 0 1-12.81 5.3z" data-original="#000000" opacity=".4"/>
  <path d="M139.43 157.56c-4.64 0-9.27-1.77-12.81-5.31L74.98 100.6a18.12 18.12 0 1 1 25.63-25.63l51.64 51.64a18.12 18.12 0 0 1 0 25.63 18.07 18.07 0 0 1-12.82 5.3z" data-original="#000000" opacity=".18"/>
  <path d="M424.2 442.33c-4.64 0-9.27-1.77-12.81-5.31l-51.64-51.64a18.12 18.12 0 1 1 25.63-25.63l51.64 51.64a18.12 18.12 0 0 1 0 25.63 18.06 18.06 0 0 1-12.82 5.3z" data-original="#000000" opacity=".64"/>
  <path d="M91.15 274.12H18.12a18.12 18.12 0 1 1 0-36.24h73.03a18.12 18.12 0 1 1 0 36.24z" data-original="#000000" opacity=".3"/>
  <path d="M493.88 274.12h-73.03a18.12 18.12 0 1 1 0-36.24h73.03a18.12 18.12 0 1 1 0 36.24z" data-original="#000000" opacity=".76"/>
</svg>
