<svg width="18" height="18" viewBox="0 0 18 18" fill="none" xmlns="http://www.w3.org/2000/svg">
<path d="M9 0C4.02571 0 0 4.02525 0 9C0 13.9742 4.02525 18 9 18C13.9743 18 18 13.9747 18 9C18 4.02571 13.9747 0 9 0ZM9 16.7442C4.72985 16.7442 1.25582 13.2702 1.25582 9C1.25582 4.72982 4.72985 1.25582 9 1.25582C13.2702 1.25582 16.7442 4.72982 16.7442 9C16.7442 13.2702 13.2702 16.7442 9 16.7442Z" fill="#7E8581"/>
<path d="M8.73354 11.3879C8.23597 11.3879 7.83319 11.8026 7.83319 12.3001C7.83319 12.7859 8.22412 13.2123 8.73354 13.2123C9.24295 13.2123 9.6457 12.7859 9.6457 12.3001C9.6457 11.8026 9.23107 11.3879 8.73354 11.3879ZM8.88752 4.48132C7.28819 4.48132 6.55371 5.4291 6.55371 6.0688C6.55371 6.53083 6.94465 6.74409 7.2645 6.74409C7.90424 6.74409 7.64363 5.83185 8.85198 5.83185C9.44429 5.83185 9.9182 6.0925 9.9182 6.63746C9.9182 7.27716 9.25477 7.6444 8.86383 7.9761C8.52025 8.27222 8.07011 8.75798 8.07011 9.7768C8.07011 10.3928 8.23597 10.5705 8.72166 10.5705C9.30212 10.5705 9.4206 10.3099 9.4206 10.0848C9.4206 9.46876 9.43244 9.11337 10.084 8.60396C10.4039 8.35519 11.4108 7.54959 11.4108 6.43601C11.4108 5.32244 10.4039 4.48132 8.88752 4.48132Z" fill="#7E8581"/>
</svg>
