<svg width="15" height="15" viewBox="0 0 15 15" fill="none" xmlns="http://www.w3.org/2000/svg">
<path d="M14.4379 1.36978C14.1713 0.987043 13.8242 0.667279 13.4209 0.432913C13.0177 0.198547 12.568 0.0552563 12.1035 0.0130912C11.639 -0.029074 11.1709 0.0309081 10.732 0.18883C10.2932 0.346752 9.89416 0.598788 9.56301 0.927261C9.24253 1.25147 8.99456 1.64006 8.83552 2.0673C8.62441 2.72992 8.26828 3.33716 7.79305 3.84486L7.59805 3.64986C7.45753 3.51016 7.26745 3.43175 7.06931 3.43175C6.87118 3.43175 6.68109 3.51016 6.54057 3.64986C6.40006 3.79147 6.32121 3.98288 6.32121 4.18237C6.32121 4.38187 6.40006 4.57328 6.54057 4.71489L6.73557 4.9099L1.08219 10.5591C0.596961 11.0442 0.256444 11.6549 0.0988068 12.3227C-0.0588299 12.9905 -0.0273542 13.6891 0.189705 14.34C0.228307 14.449 0.290762 14.5479 0.372507 14.6297C0.454253 14.7114 0.553225 14.7739 0.662195 14.8125C1.04232 14.9368 1.43974 15.0001 1.83967 15C2.32317 15 2.80193 14.9047 3.24851 14.7193C3.69509 14.534 4.1007 14.2623 4.44212 13.92L10.0962 8.26402L10.2912 8.45902C10.359 8.53001 10.4405 8.58654 10.5307 8.62521C10.621 8.66388 10.7181 8.68389 10.8162 8.68403C10.9644 8.68311 11.109 8.63854 11.232 8.55589C11.355 8.47324 11.4509 8.35617 11.5077 8.21931C11.5645 8.08246 11.5797 7.9319 11.5515 7.78644C11.5232 7.64098 11.4527 7.50709 11.3487 7.40149L11.1537 7.20648L11.3187 7.04147C11.7379 6.65188 12.2446 6.3689 12.7962 6.21644C13.4588 6.00404 14.0333 5.57976 14.4312 5.0089C14.8004 4.47428 14.9988 3.84016 15 3.19039C15.0012 2.54061 14.8052 1.90577 14.4379 1.36978ZM3.37489 12.8617C3.13677 13.1034 2.84469 13.2852 2.52266 13.3921C2.20063 13.499 1.85784 13.528 1.52243 13.4767C1.47299 13.1413 1.50288 12.799 1.60968 12.4773C1.71648 12.1556 1.89723 11.8634 2.13741 11.6241L7.79155 5.96819L9.02902 7.20573L3.37489 12.8617Z" fill="#7B837E"/>
</svg>
