<svg width="31" height="15" viewBox="0 0 31 15" fill="none" xmlns="http://www.w3.org/2000/svg">
<path d="M10.0494 2.01572C10.5813 1.45447 11.0502 0.774335 11.439 0C13.1154 0.39524 17.7143 1.52825 19.2741 2.00254C22.1452 2.84401 24.9775 3.94846 27.7548 5.30939C28.8611 5.84699 29.9447 6.48049 31 7.20655C30.3456 7.66767 29.6463 8.10243 28.8933 8.52402C26.1269 10.012 23.2893 11.1966 20.4037 12.068C18.8259 12.5687 13.2319 14.2155 11.1611 14.4131C11.1611 14.0837 10.3722 12.8848 9.74464 12.1207C6.93458 8.95416 3.53643 7.11645 0 6.85081C3.60007 6.72312 7.095 5.04162 10.0494 2.01572Z" fill="black"/>
</svg>
