<svg width="14" height="14" viewBox="0 0 14 14" fill="none" xmlns="http://www.w3.org/2000/svg">
<g clip-path="url(#clip0_842_293)">
<path d="M2.76056 12.0845C3.5851 12.0845 4.25352 11.4161 4.25352 10.5915C4.25352 9.76699 3.5851 9.09857 2.76056 9.09857C1.93603 9.09857 1.26761 9.76699 1.26761 10.5915C1.26761 11.4161 1.93603 12.0845 2.76056 12.0845Z" fill="#909BA6"/>
<path d="M12.3662 10.7606C13.0818 10.7606 13.662 10.1804 13.662 9.46478C13.662 8.74914 13.0818 8.16901 12.3662 8.16901C11.6506 8.16901 11.0704 8.74914 11.0704 9.46478C11.0704 10.1804 11.6506 10.7606 12.3662 10.7606Z" fill="#C8D2DC"/>
<path d="M11.1831 4.22538C11.7743 4.22538 12.2535 3.74613 12.2535 3.15496C12.2535 2.56378 11.7743 2.08453 11.1831 2.08453C10.5919 2.08453 10.1127 2.56378 10.1127 3.15496C10.1127 3.74613 10.5919 4.22538 11.1831 4.22538Z" fill="#E9EDF1"/>
<path d="M1.58437 8.44025C2.45939 8.44025 3.16873 7.74819 3.16873 6.8945C3.16873 6.04081 2.45939 5.34875 1.58437 5.34875C0.709345 5.34875 0 6.04081 0 6.8945C0 7.74819 0.709345 8.44025 1.58437 8.44025Z" fill="#7E8B96"/>
<path d="M6.1358 14C6.93128 14 7.57614 13.3716 7.57614 12.5965C7.57614 11.8213 6.93128 11.1929 6.1358 11.1929C5.34033 11.1929 4.69547 11.8213 4.69547 12.5965C4.69547 13.3716 5.34033 14 6.1358 14Z" fill="#A2ABB8"/>
<path d="M9.83744 13.3851C10.5931 13.3851 11.2057 12.7886 11.2057 12.0528C11.2057 11.317 10.5931 10.7205 9.83744 10.7205C9.08174 10.7205 8.46913 11.317 8.46913 12.0528C8.46913 12.7886 9.08174 13.3851 9.83744 13.3851Z" fill="#B9C3CD"/>
<path d="M3.29837 4.85045C4.21315 4.85045 4.95473 4.12658 4.95473 3.23364C4.95473 2.34069 4.21315 1.61682 3.29837 1.61682C2.38358 1.61682 1.642 2.34069 1.642 3.23364C1.642 4.12658 2.38358 4.85045 3.29837 4.85045Z" fill="#5F6C75"/>
<path d="M12.7757 7.29952C13.4519 7.29952 14 6.76155 14 6.09794C14 5.43433 13.4519 4.89636 12.7757 4.89636C12.0996 4.89636 11.5514 5.43433 11.5514 6.09794C11.5514 6.76155 12.0996 7.29952 12.7757 7.29952Z" fill="#DCE6EB"/>
<path d="M7.40845 3.49296C8.373 3.49296 9.15493 2.71103 9.15493 1.74648C9.15493 0.781925 8.373 0 7.40845 0C6.4439 0 5.66197 0.781925 5.66197 1.74648C5.66197 2.71103 6.4439 3.49296 7.40845 3.49296Z" fill="#4E5A61"/>
</g>
<defs>
<clipPath id="clip0_842_293">
<rect width="14" height="14" fill="white"/>
</clipPath>
</defs>
</svg>
