<svg width="27" height="27" viewBox="0 0 27 27" fill="none" xmlns="http://www.w3.org/2000/svg">
<path d="M13.5 0C6.05613 0 0 6.05613 0 13.5C0 20.9433 6.05613 27 13.5 27C20.9433 27 27 20.9433 27 13.5C27 6.05613 20.9444 0 13.5 0ZM19.5224 10.4102C19.5284 10.544 19.5317 10.6788 19.5317 10.8137C19.5317 14.9198 16.4071 19.6529 10.6903 19.6529C8.93547 19.6529 7.30194 19.1401 5.92725 18.2581C6.17033 18.2869 6.41775 18.3016 6.66843 18.3016C8.12469 18.3016 9.46403 17.8046 10.5277 16.9715C9.87921 16.9593 9.25079 16.7447 8.73032 16.3577C8.20986 15.9707 7.82338 15.4307 7.62495 14.8132C8.09053 14.9022 8.57023 14.8844 9.02791 14.761C8.32465 14.6189 7.69222 14.2378 7.23796 13.6825C6.7837 13.1271 6.53559 12.4317 6.53575 11.7142L6.53629 11.6751C6.96755 11.9148 7.44989 12.0479 7.94306 12.0633C7.5176 11.7795 7.16885 11.3949 6.9278 10.9438C6.68674 10.4927 6.56085 9.98908 6.56131 9.47762C6.56131 8.90774 6.71411 8.37374 6.98165 7.91479C7.76181 8.8748 8.73513 9.66002 9.83842 10.2195C10.9417 10.779 12.1503 11.1002 13.3858 11.1623C13.332 10.9299 13.3052 10.6922 13.3059 10.4537C13.3055 9.83038 13.4926 9.22134 13.8429 8.70573C14.1932 8.19013 14.6904 7.7918 15.2701 7.5625C15.8497 7.3332 16.4849 7.28355 17.0931 7.41998C17.7013 7.55641 18.2545 7.87262 18.6806 8.32752C19.3769 8.19087 20.0446 7.93576 20.6546 7.57329C20.422 8.29333 19.9358 8.90437 19.2864 9.29274C19.9025 9.22031 20.5041 9.05551 21.0711 8.80387C20.6554 9.42788 20.1308 9.97199 19.5224 10.4102Z" fill="#D9D9D9"/>
</svg>
