<svg width="27" height="27" viewBox="0 0 27 27" fill="none" xmlns="http://www.w3.org/2000/svg">
<path d="M13.5 0C10.83 0 8.21987 0.791761 5.99981 2.27516C3.77974 3.75856 2.04941 5.86697 1.02763 8.33377C0.00584938 10.8006 -0.261496 13.515 0.259405 16.1337C0.780305 18.7525 2.06606 21.1579 3.95406 23.0459C5.84207 24.9339 8.24754 26.2197 10.8663 26.7406C13.485 27.2615 16.1994 26.9942 18.6662 25.9724C21.133 24.9506 23.2414 23.2203 24.7248 21.0002C26.2082 18.7801 27 16.17 27 13.5C27 9.91958 25.5777 6.4858 23.0459 3.95406C20.5142 1.42232 17.0804 0 13.5 0ZM21.2809 18.7834C20.8882 18.8386 18.9675 18.7834 18.8678 18.7834C18.3713 18.7899 17.8922 18.6003 17.5347 18.2557C17.1297 17.8645 16.7676 17.4349 16.3718 17.0284C16.2552 16.9036 16.1285 16.7887 15.9929 16.6848C15.6769 16.4424 15.3639 16.4961 15.2151 16.8704C15.0989 17.2733 15.0178 17.6854 14.9727 18.1023C14.9466 18.4797 14.7073 18.7159 14.2839 18.742C14.0216 18.7558 13.7593 18.7619 13.5 18.7543C12.555 18.7491 11.6249 18.5193 10.7862 18.0839C9.8785 17.5786 9.08759 16.8875 8.46512 16.0558C7.44188 14.7487 6.62421 13.3128 5.89398 11.8324C5.85563 11.7573 5.10699 10.1649 5.08858 10.0897C5.02108 9.83966 5.08858 9.59881 5.29569 9.51443C5.42762 9.46381 7.89444 9.51443 7.93586 9.51443C8.11938 9.51318 8.29855 9.57033 8.44746 9.6776C8.59638 9.78487 8.70732 9.93672 8.76427 10.1112C9.22068 11.2786 9.84498 12.3732 10.6174 13.3604C10.7257 13.4919 10.8522 13.6071 10.9933 13.7025C11.1943 13.8406 11.3845 13.793 11.4673 13.5598C11.5656 13.2384 11.6233 12.906 11.6392 12.5703C11.653 11.9045 11.6391 11.4673 11.6023 10.8015C11.5778 10.3751 11.4274 10.0023 10.7985 9.88108C10.6052 9.84579 10.5883 9.68625 10.7126 9.5267C10.9718 9.19687 11.3262 9.14318 11.7235 9.12324C12.3157 9.08949 12.9078 9.1125 13.5 9.12324H13.6289C13.8866 9.1223 14.1437 9.14852 14.3959 9.20148C14.5451 9.23194 14.6805 9.30976 14.782 9.42336C14.8834 9.53696 14.9455 9.68028 14.9589 9.83199C14.9894 9.99996 15.0022 10.1707 14.9973 10.3413C14.9819 11.0669 14.9466 11.7941 14.939 12.5197C14.9318 12.8076 14.9581 13.0954 15.0172 13.3773C15.1016 13.7639 15.367 13.8605 15.6309 13.5813C15.9728 13.2212 16.2862 12.8349 16.5682 12.4261C17.068 11.681 17.4798 10.8805 17.7955 10.0406C17.9673 9.60954 18.1023 9.51443 18.5625 9.51443H21.1797C21.3353 9.5117 21.4904 9.53238 21.6399 9.57579C21.6928 9.5897 21.7423 9.61437 21.7852 9.64828C21.8281 9.68218 21.8636 9.72458 21.8893 9.77283C21.9151 9.82107 21.9307 9.87412 21.935 9.92865C21.9393 9.98317 21.9323 10.038 21.9145 10.0897C21.7856 10.6635 21.4757 11.1528 21.1474 11.6238C20.6151 12.377 20.0536 13.1119 19.509 13.8559C19.4435 13.9521 19.3836 14.052 19.3295 14.1551C19.124 14.5263 19.1393 14.7334 19.4369 15.0402C19.9125 15.5296 20.4203 15.9868 20.879 16.4899C21.2154 16.856 21.5193 17.2508 21.7872 17.6697C22.1139 18.1974 21.9068 18.6944 21.2809 18.7834Z" fill="#D9D9D9"/>
</svg>
