<svg width="15" height="15" viewBox="0 0 15 15" fill="none" xmlns="http://www.w3.org/2000/svg">
<path d="M13.8444 9.38556C13.638 9.38556 13.4708 9.55277 13.4708 9.75913V13.0761C13.4701 13.6948 12.9688 14.1962 12.3501 14.1968H1.86789C1.24913 14.1962 0.747902 13.6948 0.747155 13.0761V3.34103C0.747902 2.72243 1.24917 2.22105 1.86789 2.2203H5.18488C5.39121 2.2203 5.55846 2.05305 5.55846 1.84672C5.55846 1.64051 5.39121 1.47314 5.18488 1.47314H1.86789C0.836739 1.4743 0.00115809 2.30988 0 3.34103V13.0762C0.00115809 14.1074 0.836739 14.9429 1.86789 14.9441H12.3501C13.3812 14.9429 14.2168 14.1074 14.218 13.0762V9.75913C14.218 9.55277 14.0507 9.38556 13.8444 9.38556Z" fill="#7B7B7B"/>
<path d="M14.0703 0.511895C13.4138 -0.144631 12.3493 -0.144631 11.6928 0.511895L5.02792 7.17678C4.98229 7.2224 4.94927 7.27905 4.93206 7.34123L4.05561 10.5054C4.03792 10.5691 4.03746 10.6364 4.05428 10.7003C4.0711 10.7643 4.10459 10.8226 4.15133 10.8694C4.19808 10.9161 4.2564 10.9497 4.32034 10.9665C4.38428 10.9833 4.45154 10.9829 4.51526 10.9652L7.67946 10.0886C7.74163 10.0714 7.79829 10.0384 7.84391 9.99277L14.5086 3.32777C15.1641 2.67076 15.1641 1.60726 14.5086 0.950288L14.0703 0.511895ZM5.8419 7.41961L11.2966 1.96478L13.0558 3.72395L7.60097 9.17878L5.8419 7.41961ZM5.49052 8.12473L6.89592 9.53032L4.95189 10.0689L5.49052 8.12473ZM13.9804 2.7995L13.5842 3.19564L11.8249 1.43631L12.2212 1.04013C12.5859 0.675447 13.1772 0.675447 13.5419 1.04013L13.9804 1.47849C14.3445 1.84362 14.3445 2.43451 13.9804 2.7995Z" fill="#7B7B7B"/>
</svg>
