<svg width="29" height="29" viewBox="0 0 29 29" fill="none" xmlns="http://www.w3.org/2000/svg">
<path d="M4.11916 28.5601H13.2911V18.5642H9.99582V15.2689H13.2911V11.1498C13.2911 8.87845 15.139 7.03059 17.4103 7.03059H21.5295V10.3259H18.2341C17.3256 10.3259 16.5865 11.065 16.5865 11.9736V15.2689H21.3808L20.8316 18.5642H16.5865V28.5601H24.001C26.2723 28.5601 28.1201 26.7122 28.1201 24.4409V4.5591C28.1201 2.2878 26.2723 0.439941 24.001 0.439941H4.11916C1.84785 0.439941 0 2.2878 0 4.5591V24.4409C0 26.7122 1.84785 28.5601 4.11916 28.5601ZM1.64766 4.5591C1.64766 3.19632 2.75643 2.0876 4.11916 2.0876H24.001C25.3637 2.0876 26.4725 3.19637 26.4725 4.5591V24.4409C26.4725 25.8037 25.3637 26.9124 24.001 26.9124H18.2341V20.2119H22.2274L23.3258 13.6212H18.2341V11.9736H23.1771V5.38293H17.4103C14.2304 5.38293 11.6435 7.96987 11.6435 11.1498V13.6212H8.34816V20.2119H11.6435V26.9124H4.11916C2.75638 26.9124 1.64766 25.8036 1.64766 24.4409V4.5591Z" fill="black"/>
</svg>
