<svg width="29" height="29" viewBox="0 0 29 29" fill="none" xmlns="http://www.w3.org/2000/svg">
<path d="M0.625 8.625C0.625 4.85376 0.625 2.96815 1.79657 1.79657C2.96815 0.625 4.85376 0.625 8.625 0.625H20.3751C24.1464 0.625 26.032 0.625 27.2035 1.79657C28.3751 2.96815 28.3751 4.85376 28.3751 8.625V20.3751C28.3751 24.1464 28.3751 26.032 27.2035 27.2035C26.032 28.3751 24.1464 28.3751 20.3751 28.3751H8.625C4.85376 28.3751 2.96815 28.3751 1.79657 27.2035C0.625 26.032 0.625 24.1464 0.625 20.3751V8.625Z" stroke="#222222"/>
<circle cx="21.4376" cy="7.56251" r="2.31251" fill="#222222"/>
<circle cx="14.5001" cy="14.5002" r="5.66669" stroke="#222222"/>
</svg>
