<svg width="30" height="31" viewBox="0 0 30 31" fill="none" xmlns="http://www.w3.org/2000/svg">
<path d="M21.7943 0.440186H7.80297C3.42789 0.440186 0 3.86903 0 8.24507V22.2364C0 26.6124 3.42789 30.0403 7.80297 30.0403H21.7943C26.1713 30.0403 29.6001 26.6124 29.6001 22.2354V8.24507C29.6001 3.86903 26.1713 0.440186 21.7943 0.440186ZM27.6904 22.2354C27.6904 25.5955 25.1563 28.1297 21.7943 28.1297H7.80297C4.44288 28.1297 1.90969 25.5965 1.90969 22.2354V8.24507C1.90969 4.88402 4.44288 2.34987 7.80297 2.34987H21.7943C25.1563 2.34987 27.6904 4.88402 27.6904 8.24507V22.2354Z" fill="black"/>
<path d="M15.222 6.49585C10.2902 6.49585 7.80383 9.918 7.80383 12.7711C7.80383 14.4993 8.47986 16.0357 9.92836 16.6095C9.98947 16.6334 10.0496 16.6458 10.106 16.6458C10.2683 16.6458 10.3991 16.5465 10.4487 16.3575C10.4974 16.1818 10.6101 15.7378 10.6617 15.5506C10.7304 15.2985 10.7046 15.2117 10.5127 14.992C10.0945 14.5146 9.82619 13.8968 9.82619 13.0232C9.82619 10.4833 11.7913 8.2117 14.9384 8.2117C17.7256 8.2117 19.2572 9.85976 19.2572 12.0607C19.2572 14.9567 17.9328 17.4021 15.9668 17.4021C14.8792 17.4021 14.0676 16.5322 14.3283 15.4666C14.6405 14.1938 15.2459 12.8207 15.2459 11.9031C15.2459 11.08 14.7885 10.3954 13.8451 10.3954C12.7337 10.3954 11.8419 11.5059 11.8419 12.9955C11.8419 13.9427 12.1732 14.5853 12.1732 14.5853C12.1732 14.5853 11.0388 19.243 10.8393 20.0594C10.4421 21.6836 10.7791 23.6754 10.8078 23.8759C10.8173 23.9475 10.8784 23.9867 10.9414 23.9867C10.9835 23.9867 11.0264 23.9695 11.0541 23.9332C11.1572 23.8052 12.4787 22.225 12.9285 20.6457C13.0574 20.1988 13.6589 17.8852 13.6589 17.8852C14.0199 18.5507 15.074 19.1361 16.1959 19.1361C19.5322 19.1361 21.7961 16.1942 21.7961 12.2536C21.7951 9.27158 19.1875 6.49585 15.222 6.49585Z" fill="black"/>
</svg>
